<svg xmlns="http://www.w3.org/2000/svg" viewBox="0 0 522.23 449.58"><defs><style>.cls-1{fill:#fff;}.cls-2{fill:#a48a7b;}.cls-3{fill:#7b6a58;}.cls-4{fill:#3c3c3b;}.cls-5{fill:#1d1d1b;}.cls-6{fill:#575756;}.cls-7{fill:none;stroke:#3c3c3b;stroke-width:5px;}.cls-7,.cls-8{stroke-miterlimit:10;}.cls-8{fill:#f6f6f6;stroke:#b2b2b2;stroke-width:0.5px;opacity:0.63;}.cls-9{fill:#9d9d9c;fill-rule:evenodd;opacity:0.64;}</style></defs><g id="Capa_5" data-name="Capa 5"><rect class="cls-1" x="55.14" y="30.03" width="446.85" height="388.15" rx="73.17"/><path class="cls-1" d="M211.24,427.54H260.3v64l-53.36-53.69A6.06,6.06,0,0,1,211.24,427.54Z" transform="translate(-205.16 -294.44)"/></g><g id="Capa_3" data-name="Capa 3"><path class="cls-2" d="M659,490.13s26.74-51,27.92-61.43,8.08-11.09,10-2.87-12.56,36.37-13.7,38.74c0,0,13.7-22.82,41.16-9.07a4.38,4.38,0,0,1,2.46,3.75c.09,2.88-5,5.15-9.44,3.36-12.69-5.1-16.27-4.6-22.7,4.82,0,0,8.74-4.82,17-.39s12.29,7.15,12.52,11.48c.29,5.54,1.52,7.82-1.14,11.24a6.92,6.92,0,0,1-8.92,1.63c-3.07-1.79-3.26-2.72-3.26-2.72S698.17,501.09,695.3,516Z" transform="translate(-205.16 -294.44)"/><path class="cls-3" d="M674.57,473.83c21.06-11.48,22.5,4.43,17.28,3.78s-22.24,15.26-22.24,15.26,19.76-14.09,23.74-11.74,2.9-7-.37-10.17C687.54,465.61,674.57,473.83,674.57,473.83Z" transform="translate(-205.16 -294.44)"/><path class="cls-3" d="M716.79,474A17.88,17.88,0,0,1,718,487.39,30.94,30.94,0,0,0,716.79,474Z" transform="translate(-205.16 -294.44)"/><path class="cls-3" d="M710.94,488.67s-2.83-.51-2.2-11.58c0,0-4.2,8.56,1,12.77Z" transform="translate(-205.16 -294.44)"/><path class="cls-3" d="M713.64,468.08s2.44,1.05,2.71,3c0,0,0-1.26-.42-1.71Z" transform="translate(-205.16 -294.44)"/><path class="cls-3" d="M713.64,491.05s2.07,1,4.13-1.77c0,0-.77,2.83-2.55,2.59" transform="translate(-205.16 -294.44)"/><path class="cls-3" d="M693.63,422.33a1.58,1.58,0,0,0-1.61.16,5.51,5.51,0,0,0-2.06,5c.29,4.11,4.28,4.95,5.75,3.42C696.92,429.65,697.85,424.26,693.63,422.33Z" transform="translate(-205.16 -294.44)"/></g><g id="Capa_2" data-name="Capa 2"><path class="cls-2" d="M526.18,400.55c0,48.62-32.42,65.85-62.66,58.27-46.41-11.63-50.55-27-50.55-58.27a56.61,56.61,0,1,1,113.21,0Z" transform="translate(-205.16 -294.44)"/><path class="cls-4" d="M525.7,390c2.87-1.33,17.76-9.05,16.34-25.56,0,0,18.26-28.43-18.78-43.56,0,0-8.35-30.26-45.13-22.44,0,0-41.74-15.39-53.48,14.61,0,0-37.08,9.53-24.26,45.91,0,0-9.43,13.09,0,26.63a76.07,76.07,0,0,1,9.46,19.17c1.4,4.12,3.48,8.11,3.95,10.36,0,0-2.28-12.72,8.09-25.44,7.24-8.87,16.25-8,21.79-5.73a13.67,13.67,0,0,0,15.6-3.46,9.65,9.65,0,0,0,2.53-6.66s37-9.91,52.95,5.09c0,0,.07.4.25,1.06A14.86,14.86,0,0,0,524.75,390h0A1.25,1.25,0,0,0,525.7,390Z" transform="translate(-205.16 -294.44)"/><path class="cls-5" d="M646.65,497.39s3.24-10.65,6.84-14.82,51.86,13.56,50.55,36.52l-7.7,14.61s-22.56,5.21-24.38,4.95-23.48-13-23.48-15.13S646.65,497.39,646.65,497.39Z" transform="translate(-205.16 -294.44)"/><path class="cls-6" d="M383.76,500s.53-28.46,21.06-36.37,39.91,1.84,39.91,1.84,21.4,2.57,31.82-1.81,40.18-5.08,46.44,12.9,5.09,43.81-19.95,45-50.48,9-55.18,9S404,519.19,404,519.19L388.78,500.8Z" transform="translate(-205.16 -294.44)"/><path class="cls-4" d="M564.27,680.41h0c7.81,16.27,12.21,23.89,36.21,26,53.57,4.66,62.61-47.48,63.13-55.3s14.09-20.35,17.22-28.18S673,592.13,684.48,577s14.61-25.57,13-39.13S662,487.26,633.35,500s-17,41-19.57,46.74-21.36,29.74-23.21,35.9,0,13.46,0,13.46-2.74-2.8-3.92-9.06-4-22-5.08-24.26c-2.65-5.67-3.53-12.13-5.48-24.26S564,508,551.83,505.65s-14.87-5.34-25.65-10.56c-14.68-14.48-62.4-16.44-62.4-16.44s-42.26.52-61,8.61-45.53,15.9-53.22,20.87c-8.7,5.63-12.26,8.35-23.74,30.26s2.09,55.83,0,60.78-22.17,29-10.17,64.44c4.56,12.06,7.3,14,5.74,24s8.41,23.67,17.61,25.24,178.56,0,178.56,0l17.82-.65A30.07,30.07,0,0,0,564.27,680.41Z" transform="translate(-205.16 -294.44)"/><path class="cls-5" d="M379.52,634.13s9.7-14.28,53.05-1.49c1,.29,2,.57,3,.78,22.26,4.65,37.11-6.33,49.63-9.46,10.09-2.52,36.79,3.39,38.35,35.74,0,0-.15-1.06-.55-2.79-4.85-20.83-26.8-32.55-47-25.53A92.34,92.34,0,0,1,440.84,636a45.49,45.49,0,0,1-11.79-2.21C418.91,630.46,393.72,623.78,379.52,634.13Z" transform="translate(-205.16 -294.44)"/><path class="cls-5" d="M395.3,570s-5.5,24.63,1.18,39.33c1.95,4.3-1.65,18.33-1.65,18.33h2.23s2.25-13,1.82-17.26S393.35,608.76,395.3,570Z" transform="translate(-205.16 -294.44)"/><path class="cls-5" d="M547.78,549.87c6.77,17.65,6.8,108.1,14.09,123.65C564.86,675.09,551.84,651,547.78,549.87Z" transform="translate(-205.16 -294.44)"/><path class="cls-6" d="M364,549.87c-9.39-4.3-12.13-8.61-26.61-11.35a17.6,17.6,0,0,0-12.7,2.18c-9.46,21.91,3.11,53.69,1.09,58.47l-.15.34c3.44.63,7.62,1.12,12.15,2,12,2.35,20.35-1.95,19.18-5.42s-1.18-2.8,7-15.32S373.39,554.17,364,549.87Z" transform="translate(-205.16 -294.44)"/><path class="cls-6" d="M341.11,694.65c-4.49-4.69.59-11.35,3.72-17.61s-2.74-18.78-15.26-19.95c-7.63-.72-11.14,1.86-14.17,5.86.08.22.13.44.21.66,4.56,12.06,7.3,14,5.74,24s8.41,23.67,17.61,25.24c1,.18,4.14.31,8.82.42C347.8,706.74,344.29,698,341.11,694.65Z" transform="translate(-205.16 -294.44)"/><path class="cls-6" d="M680.83,622.91c2.38-5.95-3.39-20.66-1.23-34-3.37-1.87-9.47-3.95-14.3,1.68-7,8.21-12.52,11.41-11.73,21.16s.39,16,2.34,20.7c1.8,4.31,2.23,9.6,9.71,12.86C669.63,637.94,678.39,629,680.83,622.91Z" transform="translate(-205.16 -294.44)"/><path class="cls-6" d="M415.65,549.87s27.78-10.17,43.05-9.39,48.26,6.61,64.82,4.67c0,0-3.52,28.47,2.35,39,0,0-56.22-6.53-68-2.22s-34.43,4.06-36.39,2.22S415.65,549.87,415.65,549.87Z" transform="translate(-205.16 -294.44)"/><path class="cls-5" d="M436.75,480.26s34-1.14,53.54,22.28c0,0,12.62-4.32,5.72-19.88C496,482.66,469.14,473.92,436.75,480.26Z" transform="translate(-205.16 -294.44)"/><path class="cls-6" d="M424.07,471.77s6.84-2.25,18.06.36,22.49,2.64,48.16,30.41c0,0-15-4.47-27.29-7s-16.17-1.76-24.52-2.28-9.8,0-14.55-3a44.91,44.91,0,0,1-8.28-6.85Z" transform="translate(-205.16 -294.44)"/><path class="cls-6" d="M490.29,502.54s14.94-4.13,14.56-19-21.5-10.37-22.48-9.19-2.87,3.52-.72,4.3,5.61,3.33,6.59,6.85,2.34,7.94,2.05,10A53.56,53.56,0,0,0,490.29,502.54Z" transform="translate(-205.16 -294.44)"/><path class="cls-4" d="M460.78,392.18c5.88,0,10.42,1.3,13.48,3.87,3.41,2.86,5.13,7.58,5.13,14s-1.15,10.77-3.53,13.5c-2.58,3-7.07,4.4-13.72,4.4h-1.23c-13.14-.35-18.75-5.7-18.75-17.89,0-7.18,1.64-12,5-14.61,2.85-2.24,7.17-3.28,13.61-3.28m0-5c-13,0-23.62,4-23.62,22.89,0,12.64,5.47,22.41,23.62,22.89h1.36c17,0,22.25-8.69,22.25-22.9,0-17.06-10.57-22.89-23.61-22.89Z" transform="translate(-205.16 -294.44)"/><path class="cls-4" d="M515,392.92c10.92,0,16,5.45,16,17.15,0,12.67-3.86,17.16-14.78,17.16l-1.07,0c-11.32-.32-16.14-5.45-16.14-17.14,0-14.34,5.86-17.15,16-17.15m0-5c-11.59,0-21,3.86-21,22.15,0,12.23,4.86,21.68,21,22.14l1.22,0c15.1,0,19.78-8.41,19.78-22.16,0-16.51-9.4-22.15-21-22.15Z" transform="translate(-205.16 -294.44)"/><path class="cls-7" d="M480.35,403.52a12.53,12.53,0,0,1,17.72.23" transform="translate(-205.16 -294.44)"/></g><g id="Capa_4" data-name="Capa 4"><path class="cls-2" d="M533.73,682.13s39.07,2.79,43.57,5.92c4,2.8,22.89,22.17,31.05,27.23a3.91,3.91,0,0,1,1.56,4.78c-1.44,3.56-5.45,7.07-15.2-4.81s-14-9.69-14.38-10.08c0,0,9.92,29.86,4.7,35.71-2.76,3.09-4.89,1.66-7.44.88,0,0-5.57,6.06-9.39-1.66,0,0-6.2,5.95-9.58-14.87-1.63-10-9.92-13.62-23.53-13.2-2.14.06-4.38-1.11-6.51-1.35l-2.83-.32Z" transform="translate(-205.16 -294.44)"/><path class="cls-3" d="M572,706.39s8.31,23.22,6.75,33C578.73,739.39,580.59,725.17,572,706.39Z" transform="translate(-205.16 -294.44)"/><path class="cls-3" d="M563.25,713.92s7.36,14.58,5.38,24.48C568.63,738.4,572.7,730.39,563.25,713.92Z" transform="translate(-205.16 -294.44)"/><path class="cls-3" d="M574.85,698.89a15.89,15.89,0,0,1,4.3,4c1.51,2.4,4.18,12.11,4.59,14.41s2.09,10,2.09,10S582.41,704.43,574.85,698.89Z" transform="translate(-205.16 -294.44)"/><path class="cls-5" d="M523.52,659.7s8.09,38.43,0,52.93l13.51-.54s10.63-41.57,0-52.39Z" transform="translate(-205.16 -294.44)"/></g><g id="Capa_6" data-name="Capa 6"><rect class="cls-8" x="463.5" y="97.8" width="58.49" height="45.65" rx="7.59"/><polygon class="cls-9" points="470.2 106.47 495.31 116.64 516.23 106.47 495.44 120.62 470.2 106.47"/></g></svg>