<svg id="eIdozGL0ful1"
    xmlns="http://www.w3.org/2000/svg"
    xmlns:xlink="http://www.w3.org/1999/xlink" viewBox="0 0 567.59 350.73" shape-rendering="geometricPrecision" text-rendering="geometricPrecision">
    <style><![CDATA[
#eIdozGL0ful4_to {animation: eIdozGL0ful4_to__to 2500ms linear infinite normal forwards}@keyframes eIdozGL0ful4_to__to { 0% {transform: translate(-223.33px,-350.17px)} 48% {transform: translate(-223.287002px,-340.5042px)} 100% {transform: translate(-223.33px,-350.17px)}} #eIdozGL0ful33_to {animation: eIdozGL0ful33_to__to 2500ms linear infinite normal forwards}@keyframes eIdozGL0ful33_to__to { 0% {transform: translate(190.215004px,199.160004px)} 100% {transform: translate(199.215004px,199.160004px)}} #eIdozGL0ful33_ts {animation: eIdozGL0ful33_ts__ts 2500ms linear infinite normal forwards}@keyframes eIdozGL0ful33_ts__ts { 0% {transform: scale(0.488507,1)} 100% {transform: scale(1,1)}} #eIdozGL0ful38_to {animation: eIdozGL0ful38_to__to 2500ms linear infinite normal forwards}@keyframes eIdozGL0ful38_to__to { 0% {transform: translate(286.829028px,173.090925px)} 48% {transform: translate(286.363497px,176.618537px)} 100% {transform: translate(286.829028px,173.090925px)}} #eIdozGL0ful38_tr {animation: eIdozGL0ful38_tr__tr 2500ms linear infinite normal forwards}@keyframes eIdozGL0ful38_tr__tr { 0% {transform: rotate(0deg)} 48% {transform: rotate(-1.437596deg)} 100% {transform: rotate(0deg)}} #eIdozGL0ful44_to {animation: eIdozGL0ful44_to__to 2500ms linear infinite normal forwards}@keyframes eIdozGL0ful44_to__to { 0% {transform: translate(232.460404px,320.173632px)} 24% {transform: translate(232.463579px,324.549482px)} 48% {transform: translate(232.460404px,320.173632px)} 72% {transform: translate(232.463579px,324.549482px)} 100% {transform: translate(232.460404px,320.173632px)}} #eIdozGL0ful44_tr {animation: eIdozGL0ful44_tr__tr 2500ms linear infinite normal forwards}@keyframes eIdozGL0ful44_tr__tr { 0% {transform: rotate(-6.545164deg)} 24% {transform: rotate(0deg)} 48% {transform: rotate(-6.545164deg)} 72% {transform: rotate(0deg)} 100% {transform: rotate(-6.545164deg)}} #eIdozGL0ful55_to {animation: eIdozGL0ful55_to__to 2500ms linear infinite normal forwards}@keyframes eIdozGL0ful55_to__to { 0% {transform: translate(286.85569px,200.456268px)} 48% {transform: translate(286.85569px,198.97497px)} 100% {transform: translate(286.85569px,200.456268px)}}
]]>    </style>
    <g transform="translate(0 0.006365)">
        <path d="M716.45,601c.443463-4.319096.663756-8.658199.66-13c0-58.46-39.77-107.73-94-122.87-19-5.3-36-16.26-48-31.95C541.25,388.68,488,360,428,360c-102.33,0-185.3,83.68-185.3,187-.012085,18.285888,2.635631,36.476307,7.86,54Z" transform="translate(-223.33-350.17)" fill="#f6f6f6"/>
        <g id="eIdozGL0ful4_to" transform="translate(-223.33,-350.17)">
            <path d="M656.22,379.13c0,16.016258-12.983742,29-29,29-16,0-34.06-13.8-29-29c5.88-17.49,13-29,29-29c16.016258,0,29,12.983742,29,29Z" transform="translate(0,0)" fill="#ededed"/>
        </g>
    </g>
    <g>
        <path d="M223.33,601.87v6.27c-.004085.150779.034012.299704.11.43l19,33.81c.151979.27156.438805.439831.75.44h526.49c.306022-.00007.590034-.159116.75-.42l20.36-34.35c.080301-.132584.121871-.285005.12-.44v-5.74c.002709-.228906-.087027-.449228-.2489-.6111s-.382194-.251609-.6111-.2489h-565.86c-.228906-.002709-.449228.087027-.6111.2489s-.251609.382194-.2489.6111Z" transform="translate(-223.33-350.17)" fill="#3c3c3b"/>
        <path d="M432,583.91v25.44h47.73v-25.44Zm30.13,17.49c0,1.038295-.841705,1.88-1.88,1.88h-8.28c-.51401.024635-1.01565-.162506-1.387931-.517779s-.582659-.847621-.582069-1.362221v-11.11c.005467-1.036022.843978-1.874533,1.88-1.88h8.28c1.036022.005467,1.874533.843978,1.88,1.88Z" transform="translate(-223.33-350.17)" fill="#1d1d1b"/>
        <rect width="166.43" height="100.3" rx="3.33" ry="3.33" transform="translate(149.27 135)" fill="#1d1d1b" stroke="#3c3c3b" stroke-width="4" stroke-miterlimit="10"/>
        <rect width="92.53" height="57.15" rx="0.23" ry="0.23" transform="translate(347.31 194.17)" fill="#f6f6f6"/>
        <path d="M662.16,545.35v55.15h-90.52v-55.15h90.52m.77-2h-92.07c-.675402.005491-1.220022.554576-1.22,1.23v56.69c-.000022.675424.544598,1.224509,1.22,1.23h92.07c.326216,0,.639072-.129589.869741-.360259s.360259-.543525.360259-.869741v-56.69c0-.326216-.129589-.639072-.360259-.869741s-.543525-.360259-.869741-.360259Z" transform="translate(-223.33-350.17)" fill="#3c3c3b"/>
        <line x1="359.6" y1="202.3" x2="430.37" y2="202.3" fill="none" stroke="#3c3c3b" stroke-linecap="round" stroke-miterlimit="10"/>
        <rect width="69" height="6.13" rx="2.4" ry="2.4" transform="translate(197.99 255.65)" fill="#1d1d1b"/>
        <rect width="9.93" height="2.67" rx="1.06" ry="1.06" transform="translate(359.6 197.64)" fill="#3c3c3b"/>
        <rect width="22.24" height="25.11" rx="1.57" ry="1.57" transform="translate(383.87 212.76)" fill="#3c3c3b"/>
        <rect width="95.51" height="25.43" rx="0" ry="0" transform="translate(345.33 252.33)" fill="#1d1d1b"/>
        <rect width="9.93" height="1.54" rx="0.69" ry="0.69" transform="translate(390.02 209.41)" fill="#3c3c3b"/>
        <rect width="16.43" height="2.9" rx="1.17" ry="1.17" transform="translate(387.07 215.48)" fill="#ededed"/>
        <rect width="16.43" height="2.9" rx="1.17" ry="1.17" transform="translate(387.07 220.3)" fill="#ededed"/>
        <line x1="388.42" y1="216.93" x2="394.99" y2="216.93" fill="none" stroke="#dadada" stroke-miterlimit="10"/>
        <line x1="388.42" y1="221.75" x2="400.11" y2="221.75" fill="none" stroke="#dadada" stroke-miterlimit="10"/>
        <line x1="161.02" y1="146.78" x2="166.3" y2="146.78" fill="none" stroke="#c24c4c" stroke-width="2" stroke-linecap="round" stroke-miterlimit="10"/>
        <line x1="171.02" y1="146.78" x2="174.12" y2="146.78" fill="none" stroke="#dadada" stroke-width="2" stroke-linecap="round" stroke-miterlimit="10"/>
        <line x1="179.02" y1="146.78" x2="182.61" y2="146.78" fill="none" stroke="#c24c4c" stroke-width="2" stroke-linecap="round" stroke-miterlimit="10"/>
        <line x1="187.02" y1="146.78" x2="207" y2="146.78" fill="none" stroke="#ece874" stroke-width="2" stroke-linecap="round" stroke-miterlimit="10"/>
        <line x1="161.02" y1="158.48" x2="167.87" y2="158.48" fill="none" stroke="#70bdd9" stroke-width="2" stroke-linecap="round" stroke-miterlimit="10"/>
        <line x1="172.02" y1="158.48" x2="177.18" y2="158.48" fill="none" stroke="#6fbb76" stroke-width="2" stroke-linecap="round" stroke-miterlimit="10"/>
        <line x1="172.86" y1="170.42" x2="185.67" y2="170.42" fill="none" stroke="#b2b2b2" stroke-width="2" stroke-linecap="round" stroke-miterlimit="10"/>
        <line x1="166.86" y1="164.42" x2="174.6" y2="164.42" fill="none" stroke="#c24c4c" stroke-width="2" stroke-linecap="round" stroke-miterlimit="10"/>
        <line x1="175.78" y1="177.22" x2="198.33" y2="177.22" fill="none" stroke="#b2b2b2" stroke-width="2" stroke-linecap="round" stroke-miterlimit="10"/>
        <line x1="175.78" y1="207.12" x2="186.46" y2="207.12" fill="none" stroke="#b2b2b2" stroke-width="2" stroke-linecap="round" stroke-miterlimit="10"/>
        <line x1="182.36" y1="183.63" x2="219.2" y2="183.63" fill="none" stroke="#b2b2b2" stroke-width="2" stroke-linecap="round" stroke-miterlimit="10"/>
        <line x1="182.36" y1="191.28" x2="209.93" y2="191.28" fill="none" stroke="#b2b2b2" stroke-width="2" stroke-linecap="round" stroke-miterlimit="10"/>
        <g id="eIdozGL0ful33_to" transform="translate(190.215004,199.160004)">
            <g id="eIdozGL0ful33_ts" transform="scale(0.488507,1)">
                <line x1="182.36" y1="199.16" x2="216.07" y2="199.16" transform="translate(-199.215004,-199.160004)" fill="none" stroke="#b2b2b2" stroke-width="2" stroke-linecap="round" stroke-miterlimit="10"/>
            </g>
        </g>
        <line x1="161.02" y1="220" x2="178.3" y2="220" fill="none" stroke="#c24c4c" stroke-width="2" stroke-linecap="round" stroke-miterlimit="10"/>
        <line x1="183.02" y1="220" x2="186.36" y2="220" fill="none" stroke="#ededed" stroke-width="2" stroke-linecap="round" stroke-miterlimit="10"/>
        <line x1="181.05" y1="158.48" x2="181.54" y2="158.48" fill="none" stroke="#dadada" stroke-width="2" stroke-linecap="round" stroke-miterlimit="10"/>
        <line x1="161.02" y1="210" x2="161.51" y2="210" fill="none" stroke="#dadada" stroke-width="2" stroke-linecap="round" stroke-miterlimit="10"/>
    </g>
    <g id="eIdozGL0ful38_to" transform="translate(286.829028,173.090925)">
        <g id="eIdozGL0ful38_tr" transform="rotate(0)">
            <g transform="translate(-286.828992,-173.090918)">
                <path d="M491.1,495.35c0,7.1-5.39,12.85-12,12.85s-11.83-5.75-12.05-12.85c-.29-9.72,5.39-12,12-12c3.215138-.094413,6.327556,1.137845,8.606706,3.407537s3.524338,5.37696,3.443294,8.592463Z" transform="translate(-223.33-350.17)" fill="none" stroke="#3c3c3b" stroke-width="3" stroke-miterlimit="10"/>
                <path d="M545.17,488.63c.002654,9.18526-3.645002,17.995078-10.139962,24.490038s-15.304778,10.142616-24.490038,10.139962c-22.24,0-34.62.79-34.63-34.63c0-26.67,15.51-34.63,34.63-34.63c9.18526-.002654,17.995078,3.645002,24.490038,10.139962s10.142616,15.304778,10.139962,24.490038Z" transform="translate(-223.33-350.17)" fill="#a48a7b"/>
                <path d="M549.61,461.74c-1.087068-1.004108-2.068821-2.116538-2.93-3.32-2.02213-3.146919-3.59719-6.559549-4.68-10.14-2-6.63-5.89-8.43-9-8.68-3.708322-.270544-7.291799-1.455874-10.43-3.45-15.09-9.75-24.4-4.36-28.89.26-2.26978,2.339778-5.245964,3.868279-8.47,4.35-6.81,1.05-8.35,6.51-8.57,10.27-.132566,1.959488-1.195988,3.736816-2.86,4.78-2.58,1.67-2.94,4.49-2.82,6.5.03582,1.4312-.280082,2.849328-.92,4.13-1.89,4.1,3.65,7.4,3.65,7.4.82,5.15,2.76,5.09,3,5.05.014899-.189708.014899-.380292,0-.57s2.55,9.68,10.31,10.51s11.25,6.16,16.43,8.51s20.84,3.81,25.73,0c0,0,9.92,4.57,15.87-.94l.09.27c.032316-.098408.059025-.198568.08-.3c6.69-7.88,6.61-17.84,6.61-17.84c5.19-9,.88-12.53-2.2-16.79Z" transform="translate(-223.33-350.17)" fill="#3c3c3b"/>
                <path d="M545,496.4c-6,5.51-15.87.94-15.87.94-4.89,3.81-20.54,2.34-25.73,0s-8.7-7.63-16.43-8.51-10.22-10.51-10.22-10.51c.009917.129811.009917.260189,0,.39v0c-.85,16.23,6.08,19.25,6.73,16.9s3.78-4.7,7.43.26c1.641196,2.477743,2.820213,5.23217,3.48,8.13c1.146575,4.668625,4.620945,8.415199,9.19,9.91c15.48,4.81,32.67-2,34.44-4.2c3.114624-3.913092,5.487017-8.363024,7-13.13-.02-.11-.02-.18-.02-.18Z" transform="translate(-223.33-350.17)" fill="#1d1d1b"/>
                <path d="M467,495.35c0,0,22.08,1.11,28.57,3.06c3.351141,1.192974,5.785417,4.117938,6.35,7.63" transform="translate(-223.33-350.17)" fill="none" stroke="#3c3c3b" stroke-width="3" stroke-miterlimit="10"/>
            </g>
        </g>
    </g>
    <g id="eIdozGL0ful44_to" transform="translate(232.460404,320.173632)">
        <g id="eIdozGL0ful44_tr" transform="rotate(-6.545164)">
            <g transform="translate(-232.463578,-324.549478)">
                <path d="M385,628.62c0,0-2.64-1.86-3-7.63s-8.61-7.44-8.61-7.44-4.79-.88-1.76-5.77s31.4-12.42,34.14,0c-.014453,2.442237-.621863,4.844423-1.77,7-1.95,3.73-8.21,10.87-8.5,11.07s-10.5,2.77-10.5,2.77Z" transform="translate(-223.33-350.17)" fill="#a48a7b"/>
                <path d="M391.4,638.89L389.25,637c-3.464207-2.987733-4.952885-7.670302-3.85-12.11c1.65-6.49,6.2-14.11,16.42-13c.975005.118075,1.909418.460351,2.73,1l4.84,3.09Z" transform="translate(-223.33-350.17)" fill="#1d1d1b"/>
                <path d="M452.44,671.15c0,0-12.34,7.93-22.94.88s-6.12-8.64-19.17-16-17.88-9.92-18.75-15.92-2-9,1.46-15.17s13.32-13.06,18.7-11.89c4.78,1,9.22,7,12.72,6.52s7.42-1.95,12.22,1.57s7.57,9.56,8.92,11.8s9.46,14.29,10.14,17-3.3,21.21-3.3,21.21Z" transform="translate(-223.33-350.17)" fill="#3c3c3b"/>
            </g>
        </g>
    </g>
    <g transform="translate(.000004 0)">
        <path d="M521.17,563.43c11.74-2.08,29.41-10.78,31.06-10.21s6.44,6.63,6.44,6.63-.09,10.95-1.95,13.5-34.54,12.13-34.54,12.13-44.44-2-45.5-2-15.05-11.48-15.05-12.58s5.72-19.76,5.72-19.76s23.47,9,29.95,11s12.13,3.38,23.87,1.29Z" transform="translate(-223.33-350.17)" fill="#1d1d1b"/>
        <path d="M527.52,577.37c0,0-24.61,6-45.67-9.55-1.184014-.855562-2.511618-1.49227-3.92-1.88-2.92-.83-8.14-3.48-8.93-12-.810813-.768971-1.383545-1.754765-1.65-2.84-4.9,1.29-15,5.91-24.44,22.47c0,0-7.56,10.3-12,12.26s-6.52,13.43-4.82,21.91s3.06,26,.71,33.07-1,21.72,2.16,26.61s12.65,16.76,21.52,18.58c5.83,1.2,39.17,12.64,81.44,8.22c33.39-3.49,57.88-33,55.85-66.5-1.09-18-2.55-36-4.25-40.06-3.65-8.87-6.52-11-8.61-16.44s3.46-9.2-22.68-18c1.89,6.77-.89,10.24-3,11.8-1.2162.904291-2.282569,1.994281-3.16,3.23-3.060286,4.314888-7.762145,7.179405-13,7.92-1.596736.248383-3.179007.582195-4.74,1Z" transform="translate(-223.33-350.17)" fill="#3c3c3b"/>
        <path d="M495.32,700.82l77.73-7.93c7.419379-.761578,13.466387-6.288763,14.89-13.61l9.13-47.08c2.134801-11.011799-.828424-22.39818-8.060337-30.972358s-17.955569-13.415004-29.169663-13.167642l-40.63.89c-14.105605.298823-27.413401,6.602619-36.58016,17.327726s-13.321276,24.852219-11.41984,38.832274l5.59,41.16c1.230854,9.055679,9.430301,15.497469,18.52,14.55Z" transform="translate(-223.33-350.17)" fill="#575756"/>
        <path d="M463.2,582c.489555-4.38688.553185-8.810855.19-13.21-.29-2.25-6-8.8-6.85-9.59-.64799-.294321-1.341103-.476897-2.05-.54-4.627808,4.357194-8.536235,9.419924-11.58,15s-5.2,7.09-9.51,10.62c0,0,7.69,10.93,16,8.39s13.21-6.6,13.8-10.67Z" transform="translate(-223.33-350.17)" fill="#575756"/>
    </g>
    <g>
        <path d="M576.09,587c4.69,3.13,5.92,5.81,8.43,4.76-.195546-1.396638-.530552-2.770167-1-4.1-3.65-8.87-6.52-11-8.61-16.44-.268723-.736214-.449966-1.501465-.54-2.28v0c0,0-2.98,14.97,1.72,18.06Z" transform="translate(-223.33-350.17)" fill="#575756"/>
    </g>
    <g id="eIdozGL0ful55_to" transform="translate(286.85569,200.456268)">
        <g transform="translate(-286.85569,-200.456268)">
            <path d="M550.39,551c0,0,2.65-16.32-10-20.47-1.85-.75-3.13-4.05-5.55-5.68s-8.34.07-10.95.13-14.61-4.89-23-1.17c-5.375011,2.284131-10.893414,4.214904-16.52,5.78-.57.14-1.11.29-1.62.44h-.07v0c-.79.24-1.51.48-2.15.74-10.53,4.23-10.98,16.49-10.98,16.49-.111858,1.782918.630589,3.51282,2,4.66-.223938,5.838146,3.638676,11.047894,9.29,12.53c9.361205,9.940758,22.674873,15.178201,36.3,14.28c26-1.47,28.73-13.73,28.73-13.73s6.72-5.91,4.52-14Z" transform="translate(-223.33-350.17)" fill="#3c3c3b"/>
            <path d="M495.58,538c0,0,33.45,10.76,45.09-.29c0,0,.59,15-12.42,18.1-6.458295,1.722357-13.345573.578122-18.9-3.14-1.196545-.814574-2.512179-1.438657-3.9-1.85-2.89-.82-8.02-3.66-9.87-12.82Z" transform="translate(-223.33-350.17)" fill="#1d1d1b"/>
        </g>
    </g>
</svg>
