<svg xmlns="http://www.w3.org/2000/svg" viewBox="0 0 567.59 350.73">
    <defs>
        <style>.cls-1{fill:#f6f6f6;}.cls-2{fill:#ededed;}.cls-3{fill:#3c3c3b;}.cls-4,.cls-5{fill:#1d1d1b;}.cls-15,.cls-5,.cls-6{stroke:#3c3c3b;}.cls-10,.cls-11,.cls-12,.cls-13,.cls-14,.cls-15,.cls-5,.cls-6,.cls-7,.cls-8,.cls-9{stroke-miterlimit:10;}.cls-5{stroke-width:4px;}.cls-10,.cls-11,.cls-12,.cls-13,.cls-14,.cls-15,.cls-6,.cls-7,.cls-8,.cls-9{fill:none;}.cls-10,.cls-11,.cls-12,.cls-13,.cls-14,.cls-6,.cls-8,.cls-9{stroke-linecap:round;}.cls-7,.cls-9{stroke:#dadada;}.cls-8{stroke:#c24c4c;}.cls-10,.cls-11,.cls-12,.cls-13,.cls-14,.cls-8,.cls-9{stroke-width:2px;}.cls-10{stroke:#ece874;}.cls-11{stroke:#70bdd9;}.cls-12{stroke:#6fbb76;}.cls-13{stroke:#b2b2b2;}.cls-14{stroke:#ededed;}.cls-15{stroke-width:3px;}.cls-16{fill:#a48a7b;}.cls-17{fill:#575756;}</style>
    </defs>
    <g id="Background">
        <path class="cls-1" d="M716.45,601a126.21,126.21,0,0,0,.66-13c0-58.46-39.77-107.73-94-122.87-19-5.3-36-16.26-48-31.95C541.25,388.68,488,360,428,360,325.67,360,242.7,443.68,242.7,547a188.57,188.57,0,0,0,7.86,54Z" transform="translate(-223.33 -350.17)"/>
        <path class="cls-2" d="M656.22,379.13a29,29,0,0,1-29,29c-16,0-34.06-13.8-29-29,5.88-17.49,13-29,29-29A29,29,0,0,1,656.22,379.13Z" transform="translate(-223.33 -350.17)"/>
    </g>
    <g id="Setup">
        <path class="cls-3" d="M223.33,601.87v6.27a.81.81,0,0,0,.11.43l19,33.81a.86.86,0,0,0,.75.44H769.68a.88.88,0,0,0,.75-.42l20.36-34.35a.83.83,0,0,0,.12-.44v-5.74a.85.85,0,0,0-.86-.86H224.19A.85.85,0,0,0,223.33,601.87Z" transform="translate(-223.33 -350.17)"/>
        <path class="cls-4" d="M432,583.91v25.44h47.73V583.91Zm30.13,17.49a1.88,1.88,0,0,1-1.88,1.88h-8.28A1.88,1.88,0,0,1,450,601.4V590.29a1.89,1.89,0,0,1,1.88-1.88h8.28a1.89,1.89,0,0,1,1.88,1.88Z" transform="translate(-223.33 -350.17)"/>
        <rect class="cls-5" x="149.27" y="135" width="166.43" height="100.3" rx="3.33"/>
        <rect class="cls-1" x="347.31" y="194.17" width="92.53" height="57.15" rx="0.23"/>
        <path class="cls-3" d="M662.16,545.35V600.5H571.64V545.35h90.52m.77-2H570.86a1.23,1.23,0,0,0-1.22,1.23v56.69a1.23,1.23,0,0,0,1.22,1.23h92.07a1.23,1.23,0,0,0,1.23-1.23V544.58a1.23,1.23,0,0,0-1.23-1.23Z" transform="translate(-223.33 -350.17)"/>
        <line class="cls-6" x1="359.6" y1="202.3" x2="430.37" y2="202.3"/>
        <rect class="cls-4" x="197.99" y="255.65" width="69" height="6.13" rx="2.4"/>
        <rect class="cls-3" x="359.6" y="197.64" width="9.93" height="2.67" rx="1.06"/>
        <rect class="cls-3" x="383.87" y="212.76" width="22.24" height="25.11" rx="1.57"/>
        <rect class="cls-4" x="345.33" y="252.33" width="95.51" height="25.43"/>
        <rect class="cls-3" x="390.02" y="209.41" width="9.93" height="1.54" rx="0.69"/>
        <rect class="cls-2" x="387.07" y="215.48" width="16.43" height="2.9" rx="1.17"/>
        <rect class="cls-2" x="387.07" y="220.3" width="16.43" height="2.9" rx="1.17"/>
        <line class="cls-7" x1="388.42" y1="216.93" x2="394.99" y2="216.93"/>
        <line class="cls-7" x1="388.42" y1="221.75" x2="400.11" y2="221.75"/>
        <line class="cls-8" x1="161.02" y1="146.78" x2="166.3" y2="146.78"/>
        <line class="cls-9" x1="171.02" y1="146.78" x2="174.12" y2="146.78"/>
        <line class="cls-8" x1="179.02" y1="146.78" x2="182.61" y2="146.78"/>
        <line class="cls-10" x1="187.02" y1="146.78" x2="207" y2="146.78"/>
        <line class="cls-11" x1="161.02" y1="158.48" x2="167.87" y2="158.48"/>
        <line class="cls-12" x1="172.02" y1="158.48" x2="177.18" y2="158.48"/>
        <line class="cls-13" x1="172.86" y1="170.42" x2="185.67" y2="170.42"/>
        <line class="cls-8" x1="166.86" y1="164.42" x2="174.6" y2="164.42"/>
        <line class="cls-13" x1="175.78" y1="177.22" x2="198.33" y2="177.22"/>
        <line class="cls-13" x1="175.78" y1="207.12" x2="186.46" y2="207.12"/>
        <line class="cls-13" x1="182.36" y1="183.63" x2="219.2" y2="183.63"/>
        <line class="cls-13" x1="182.36" y1="191.28" x2="209.93" y2="191.28"/>
        <line class="cls-13" x1="182.36" y1="199.16" x2="216.07" y2="199.16"/>
        <line class="cls-8" x1="161.02" y1="220" x2="178.3" y2="220"/>
        <line class="cls-14" x1="183.02" y1="220" x2="186.36" y2="220"/>
        <line class="cls-9" x1="181.05" y1="158.48" x2="181.54" y2="158.48"/>
        <line class="cls-9" x1="161.02" y1="210" x2="161.51" y2="210"/>
    </g>
    <g id="Head_Diego" data-name="Head Diego">
        <path class="cls-15" d="M491.1,495.35c0,7.1-5.39,12.85-12,12.85s-11.83-5.75-12.05-12.85c-.29-9.72,5.39-12,12-12A11.71,11.71,0,0,1,491.1,495.35Z" transform="translate(-223.33 -350.17)"/>
        <path class="cls-16" d="M545.17,488.63a34.62,34.62,0,0,1-34.63,34.63c-22.24,0-34.62.79-34.63-34.63,0-26.67,15.51-34.63,34.63-34.63A34.62,34.62,0,0,1,545.17,488.63Z" transform="translate(-223.33 -350.17)"/>
        <path class="cls-3" d="M549.61,461.74a21.75,21.75,0,0,1-2.93-3.32A40.38,40.38,0,0,1,542,448.28c-2-6.63-5.89-8.43-9-8.68a22.5,22.5,0,0,1-10.43-3.45c-15.09-9.75-24.4-4.36-28.89.26a14.86,14.86,0,0,1-8.47,4.35c-6.81,1.05-8.35,6.51-8.57,10.27a6.13,6.13,0,0,1-2.86,4.78c-2.58,1.67-2.94,4.49-2.82,6.5a8.75,8.75,0,0,1-.92,4.13c-1.89,4.1,3.65,7.4,3.65,7.4.82,5.15,2.76,5.09,3,5.05a3.64,3.64,0,0,0,0-.57S479.24,488,487,488.83s11.25,6.16,16.43,8.51,20.84,3.81,25.73,0c0,0,9.92,4.57,15.87-.94l.09.27a2.74,2.74,0,0,0,.08-.3c6.69-7.88,6.61-17.84,6.61-17.84C557,469.53,552.69,466,549.61,461.74Z" transform="translate(-223.33 -350.17)"/>
        <path class="cls-4" d="M545,496.4c-6,5.51-15.87.94-15.87.94-4.89,3.81-20.54,2.34-25.73,0s-8.7-7.63-16.43-8.51-10.22-10.51-10.22-10.51a2.56,2.56,0,0,1,0,.39h0c-.85,16.23,6.08,19.25,6.73,16.9s3.78-4.7,7.43.26a24.62,24.62,0,0,1,3.48,8.13,13.92,13.92,0,0,0,9.19,9.91c15.48,4.81,32.67-2,34.44-4.2a41,41,0,0,0,7-13.13C545,496.47,545,496.4,545,496.4Z" transform="translate(-223.33 -350.17)"/>
        <path class="cls-15" d="M467,495.35s22.08,1.11,28.57,3.06a9.74,9.74,0,0,1,6.35,7.63" transform="translate(-223.33 -350.17)"/>
    </g>
    <g id="Hand_Diego" data-name="Hand Diego">
        <path class="cls-16" d="M385,628.62s-2.64-1.86-3-7.63-8.61-7.44-8.61-7.44-4.79-.88-1.76-5.77,31.4-12.42,34.14,0a15.08,15.08,0,0,1-1.77,7c-1.95,3.73-8.21,10.87-8.5,11.07S385,628.62,385,628.62Z" transform="translate(-223.33 -350.17)"/>
        <path class="cls-4" d="M391.4,638.89,389.25,637a12.13,12.13,0,0,1-3.85-12.11c1.65-6.49,6.2-14.11,16.42-13a6.36,6.36,0,0,1,2.73,1l4.84,3.09Z" transform="translate(-223.33 -350.17)"/>
        <path class="cls-3" d="M452.44,671.15s-12.34,7.93-22.94.88-6.12-8.64-19.17-16-17.88-9.92-18.75-15.92-2-9,1.46-15.17,13.32-13.06,18.7-11.89c4.78,1,9.22,7,12.72,6.52s7.42-1.95,12.22,1.57,7.57,9.56,8.92,11.8,9.46,14.29,10.14,17S452.44,671.15,452.44,671.15Z" transform="translate(-223.33 -350.17)"/>
    </g>
    <g id="BodyDiego">
        <path class="cls-4" d="M521.17,563.43c11.74-2.08,29.41-10.78,31.06-10.21s6.44,6.63,6.44,6.63-.09,10.95-1.95,13.5-34.54,12.13-34.54,12.13-44.44-2-45.5-2S461.63,572,461.63,570.9s5.72-19.76,5.72-19.76,23.47,9,29.95,11S509.43,565.52,521.17,563.43Z" transform="translate(-223.33 -350.17)"/>
        <path class="cls-3" d="M527.52,577.37s-24.61,6-45.67-9.55a12.24,12.24,0,0,0-3.92-1.88c-2.92-.83-8.14-3.48-8.93-12a5.83,5.83,0,0,1-1.65-2.84c-4.9,1.29-15,5.91-24.44,22.47,0,0-7.56,10.3-12,12.26s-6.52,13.43-4.82,21.91,3.06,26,.71,33.07-1,21.72,2.16,26.61,12.65,16.76,21.52,18.58c5.83,1.2,39.17,12.64,81.44,8.22,33.39-3.49,57.88-33,55.85-66.5-1.09-18-2.55-36-4.25-40.06-3.65-8.87-6.52-11-8.61-16.44s3.46-9.2-22.68-18c1.89,6.77-.89,10.24-3,11.8a14.45,14.45,0,0,0-3.16,3.23,19.24,19.24,0,0,1-13,7.92,45.21,45.21,0,0,0-4.74,1Z" transform="translate(-223.33 -350.17)"/>
        <path class="cls-17" d="M495.32,700.82l77.73-7.93a16.93,16.93,0,0,0,14.89-13.61l9.13-47.08a37.09,37.09,0,0,0-37.23-44.14l-40.63.89a49.5,49.5,0,0,0-48,56.16l5.59,41.16A16.92,16.92,0,0,0,495.32,700.82Z" transform="translate(-223.33 -350.17)"/>
        <path class="cls-17" d="M463.2,582a68.38,68.38,0,0,0,.19-13.21c-.29-2.25-6-8.8-6.85-9.59a6.31,6.31,0,0,0-2.05-.54,60.19,60.19,0,0,0-11.58,15s-5.2,7.09-9.51,10.62c0,0,7.69,10.93,16,8.39S462.61,586.07,463.2,582Z" transform="translate(-223.33 -350.17)"/>
    </g>
    <g id="Chair_Diego" data-name="Chair Diego">
        <path class="cls-17" d="M576.09,587c4.69,3.13,5.92,5.81,8.43,4.76a21.11,21.11,0,0,0-1-4.1c-3.65-8.87-6.52-11-8.61-16.44a10,10,0,0,1-.54-2.28h0S571.39,583.91,576.09,587Z" transform="translate(-223.33 -350.17)"/>
    </g>
    <g id="subHead_Diego" data-name="subHead Diego">
        <path class="cls-3" d="M550.39,551s2.65-16.32-10-20.47c-1.85-.75-3.13-4.05-5.55-5.68s-8.34.07-10.95.13-14.61-4.89-23-1.17a134.18,134.18,0,0,1-16.52,5.78c-.57.14-1.11.29-1.62.44l-.07,0h0c-.79.24-1.51.48-2.15.74C470,535,469.55,547.26,469.55,547.26a5.62,5.62,0,0,0,2,4.66,12.46,12.46,0,0,0,9.29,12.53,45.73,45.73,0,0,0,36.3,14.28c26-1.47,28.73-13.73,28.73-13.73S552.59,559.09,550.39,551Z" transform="translate(-223.33 -350.17)"/>
        <path class="cls-4" d="M495.58,538s33.45,10.76,45.09-.29c0,0,.59,15-12.42,18.1a23.22,23.22,0,0,1-18.9-3.14,14,14,0,0,0-3.9-1.85C502.56,550,497.43,547.16,495.58,538Z" transform="translate(-223.33 -350.17)"/>
    </g>
</svg>