<svg id="Capa_1" data-name="Capa 1"
    xmlns="http://www.w3.org/2000/svg"
    xmlns:xlink="http://www.w3.org/1999/xlink" viewBox="0 0 694.25 694.25">
    <defs>
        <style>.cls-1{fill:#f6f6f6;}.cls-2{fill:#1d1d1b;}.cls-3{fill:#3c3c3b;}.cls-4{fill:#a48a7b;}.cls-5{fill:url(#Degradado_sin_nombre_108);}.cls-6,.cls-7{fill:none;stroke-miterlimit:10;}.cls-6{stroke:#3c3c3b;stroke-width:5px;}.cls-7{stroke:#634e42;stroke-width:6px;}.cls-8{fill:url(#Degradado_sin_nombre_108-2);}.cls-9{font-size:77.34px;fill:#ededed;}.cls-10,.cls-9{font-family:Nasa;}.cls-10{font-size:15.82px;}.cls-10,.cls-11{fill:#706f6f;}.cls-12{fill:url(#Degradado_sin_nombre_108-3);}</style>
        <linearGradient id="Degradado_sin_nombre_108" x1="495.64" y1="439.19" x2="495.64" y2="537.29" gradientUnits="userSpaceOnUse">
            <stop offset="0" stop-color="#6c5c51"/>
            <stop offset="0.67" stop-color="#a08678"/>
            <stop offset="0.73" stop-color="#a48a7b"/>
        </linearGradient>
        <linearGradient id="Degradado_sin_nombre_108-2" x1="500" y1="698.43" x2="500" y2="719.91" xlink:href="#Degradado_sin_nombre_108"/>
        <linearGradient id="Degradado_sin_nombre_108-3" x1="311.23" y1="624.84" x2="311.23" y2="624.84" xlink:href="#Degradado_sin_nombre_108"/>
    </defs>
    <circle class="cls-1" cx="347.13" cy="347.13" r="347.13"/>
    <path class="cls-2" d="M370.5,719.91s-1-16,8.6-28.27,132.42-31.42,132.42-31.42L596,670.78s40.43,28.49,30,46.14-209.21,42-209.21,42Z" transform="translate(-152.87 -152.87)"/>
    <path class="cls-3" d="M500,847.13a345.51,345.51,0,0,0,182.14-51.58,195.33,195.33,0,0,0-364.28,0A345.51,345.51,0,0,0,500,847.13Z" transform="translate(-152.87 -152.87)"/>
    <rect class="cls-4" x="196.61" y="253.25" width="292.3" height="292.3" rx="56.35"/>
    <path class="cls-5" d="M349.48,535.06s52.09,15.26,60.69-34c0,0,33.66-1.18,44.22-19.57,0,0,30.91,21.13,66.52,8.61,0,0,28.57,34.43,74.74,27,0,0,21.06,20,46.14,7.43v-85.3H349.48Z" transform="translate(-152.87 -152.87)"/>
    <path class="cls-3" d="M657,466.58a36.7,36.7,0,0,1-60.63,39.09,83.48,83.48,0,0,1-10.06.61,82.53,82.53,0,0,1-64.5-30.92,69.89,69.89,0,0,1-66.87-8,92.3,92.3,0,0,1-51.72,23.88c0,.22,0,.45,0,.67a36.7,36.7,0,1,1-67.86-19.38,92.74,92.74,0,1,1,133-126.18c.63.89,1.23,1.79,1.81,2.7-.11-1.11-.19-2.22-.25-3.34s-.09-2.43-.09-3.66a70.31,70.31,0,1,1,140.62,0c0,.77,0,1.53,0,2.3A82.8,82.8,0,0,1,657,466.58Z" transform="translate(-152.87 -152.87)"/>
    <circle class="cls-6" cx="220.25" cy="450.1" r="65.63"/>
    <circle class="cls-6" cx="459.27" cy="450.1" r="65.63"/>
    <path class="cls-7" d="M464.45,611.88c17,17,44.22,17.32,60.84.69" transform="translate(-152.87 -152.87)"/>
    <circle class="cls-3" cx="267.15" cy="445.88" r="13.83"/>
    <circle class="cls-3" cx="414.81" cy="450.1" r="13.83"/>
    <path class="cls-2" d="M370.5,719.91s31.85-21.48,78.41-21.48H389.43" transform="translate(-152.87 -152.87)"/>
    <path class="cls-2" d="M626,716.92s-29.61-16.67-61.3-18.49H605Z" transform="translate(-152.87 -152.87)"/>
    <path class="cls-8" d="M500,698.43H460.3c25.05,0,39.7,21.48,39.7,21.48s14.65-21.48,39.7-21.48Z" transform="translate(-152.87 -152.87)"/>
    <text class="cls-9" transform="translate(252.49 648.5)">nasa</text>
    <text class="cls-10" transform="translate(255.09 662.32)">nasa</text>
    <path class="cls-11" d="M335.13,761.4" transform="translate(-152.87 -152.87)"/>
    <path class="cls-12" d="M311.23,624.84" transform="translate(-152.87 -152.87)"/>
</svg>